<?xml version="1.0" encoding="UTF-8"?>
<svg xmlns="http://www.w3.org/2000/svg" viewBox="0 0 48 48">
    <linearGradient id="insta_gradient" gradientUnits="userSpaceOnUse" x1="9.8" y1="9.8" x2="38.2" y2="38.2">
        <stop offset="0" style="stop-color:#FEE411"/>
        <stop offset="0.05" style="stop-color:#FEDB16"/>
        <stop offset="0.37" style="stop-color:#FE0E38"/>
        <stop offset="0.7" style="stop-color:#D300C5"/>
        <stop offset="1" style="stop-color:#7638FA"/>
    </linearGradient>
    <path fill="url(#insta_gradient)" d="M24,4c5.5,0,6.2,0,8.3,0.1c2,0.1,3.1,0.4,3.8,0.7c1,0.4,1.7,0.8,2.4,1.5c0.7,0.7,1.2,1.4,1.5,2.4 c0.3,0.7,0.6,1.8,0.7,3.8C40.9,17.8,41,18.5,41,24s0,6.2-0.1,8.3c-0.1,2-0.4,3.1-0.7,3.8c-0.4,1-0.8,1.7-1.5,2.4 c-0.7,0.7-1.4,1.2-2.4,1.5c-0.7,0.3-1.8,0.6-3.8,0.7C30.2,40.9,29.5,41,24,41s-6.2,0-8.3-0.1c-2-0.1-3.1-0.4-3.8-0.7 c-1-0.4-1.7-0.8-2.4-1.5c-0.7-0.7-1.2-1.4-1.5-2.4c-0.3-0.7-0.6-1.8-0.7-3.8C7.1,30.2,7,29.5,7,24s0-6.2,0.1-8.3 c0.1-2,0.4-3.1,0.7-3.8c0.4-1,0.8-1.7,1.5-2.4c0.7-0.7,1.4-1.2,2.4-1.5c0.7-0.3,1.8-0.6,3.8-0.7C17.8,7.1,18.5,7,24,7z M24,1 c-5.6,0-6.3,0-8.5,0.1c-2.2,0.1-3.7,0.4-5,1c-1.4,0.5-2.5,1.2-3.7,2.4C5.7,5.6,4.9,6.8,4.4,8.1c-0.5,1.3-0.9,2.8-1,5 C3.3,15.3,3.2,16,3.2,21.6s0,6.3,0.1,8.5c0.1,2.2,0.4,3.7,1,5c0.5,1.4,1.2,2.5,2.4,3.7c1.1,1.1,2.3,1.9,3.7,2.4 c1.3,0.5,2.8,0.9,5,1c2.2,0.1,2.9,0.1,8.5,0.1s6.3,0,8.5-0.1c2.2-0.1,3.7-0.4,5-1c1.4-0.5,2.5-1.2,3.7-2.4c1.1-1.1,1.9-2.3,2.4-3.7 c0.5-1.3,0.9-2.8,1-5c0.1-2.2,0.1-2.9,0.1-8.5s0-6.3-0.1-8.5c-0.1-2.2-0.4-3.7-1-5c-0.5-1.4-1.2-2.5-2.4-3.7 c-1.1-1.1-2.3-1.9-3.7-2.4c-1.3-0.5-2.8-0.9-5-1C30.3,1,29.6,1,24,1L24,1z M24,12c-6.6,0-12,5.4-12,12s5.4,12,12,12s12-5.4,12-12 S30.6,12,24,12z M24,32c-4.4,0-8-3.6-8-8s3.6-8,8-8s8,3.6,8,8S28.4,32,24,32z M36.9,11.6c0,1.5-1.2,2.8-2.8,2.8 c-1.5,0-2.8-1.2-2.8-2.8c0-1.5,1.2-2.8,2.8-2.8C35.6,8.9,36.9,10.1,36.9,11.6z"/></svg>